<svg xmlns="http://www.w3.org/2000/svg" version="1.1" x="0" y="0" width="600" height="600" viewBox="0 0 600 600" enable-background="new 0 0 600 600" xml:space="preserve"><path fill="#FBB03B" d="M300 0C134.31 0 0 134.31 0 300c0 43.83 9.4 85.47 26.3 123h547.41C590.6 385.47 600 343.83 600 300 600 134.31 465.69 0 300 0z"/><path d="M539.56 128.11c-5.08 1.34-12.95 5.08-18.15 4.76 -7.89-0.48-17.01 4.48-24.54 6.61 -5.54 1.57-12.92 4.09-17.54 7.71 -5.06 3.97-3.09 9.96-3.73 15.45 -1.08 9.29 0.36 7.17 7.05 12.49 -7.44 3.02-36.27 1.98-39.29 11.12 -1.45 4.4-3.34 9.86-3.78 14.47 -0.86 8.96-1.12 12.8 2.73 20.36 -5.36 1.82-25.07 4.13-23.7 11.8 0.68 3.81-15.69 8.85-20.27 8.3 -8.68-1.04-20.11 2.36-27.38 6.62 -5.09 2.99-3.33 5.2-2.04 9.2 -7.65 0.33-21.38-2.52-28.01 1.73 -2.33 1.5-0.54 7.59-0.35 9.04 0.84 6.34 2.3-1.54 1.29 8.21 -0.28 2.69-3.01 12.01 1.15 12.61 3.73 0.54 2.44 4.18 2.44 6.76 -2.69 0.89-7.7 0.83-9.6 3.03 -1.69 1.96-1.17 4.8-4.57 4.74 -7.46-0.15-23.49-1.52-28.48 5.11 -5.92 7.84 5.53 9.95 4.36 16.44 -0.73 4.04-0.17 8.02 3.44 10.19 2.82 1.7-1.43 7.55-0.63 11.7 -5.74-2.32-15.32-8.31-21.47-4.21 -5.82 3.89-16.98-4.21-24.58-1.12 -3.17 1.29-7.79-0.65-11.42 0.42 -3.76 1.11-7.44 2.48-11.19 3.62 -3.76 1.14 2.38 11.74 3.25 14.08 -6.94-2.45-18.87-7.88-26.7-6.12 5.34-16.23-7.93-5.09-13.09-4.53 -2.93 0.32-9.16-6.89-11.44-8.6 -3.93-2.94-8.53-2.75-12.91-4.66 -2.85-1.24-8.18-5.85-11.22-2.69 -3.88 4.04-7.52 7.86-11.79 11.47 -7.03 5.94-10.64 12-19.92 12.63 2.44-5.56 3-15.75-0.62-20.97 -3.04-4.38-4.02-5.6-6.13-10 -2.06-4.29-6.56-9.27-11.57-9.69 -10.66-0.9-17.98 8.2-26.85 12.43 -8.25 3.93-17.22 9.95-23.49 16.6 -15.6 16.54-33.99 29.48-49.52 46.18 -1.26 1.36-2.53 2.67-3.8 3.96C55.33 514.3 167.66 600 300 600c165.69 0 300-134.31 300-300 0-64.56-20.4-124.36-55.1-173.31C543.13 127.16 541.35 127.64 539.56 128.11z"/></svg>